<svg xmlns="http://www.w3.org/2000/svg" width="1200" height="630" viewBox="0 0 1200 630" fill="none">
  <defs>
    <linearGradient id="bg" x1="0" y1="0" x2="1" y2="1">
      <stop offset="0" stop-color="#0A1220"></stop>
      <stop offset="1" stop-color="#121C2E"></stop>
    </linearGradient>
    <radialGradient id="glow" cx="0.7" cy="0.3" r="0.7">
      <stop offset="0" stop-color="#4A9EFF" stop-opacity="0.18"></stop>
      <stop offset="1" stop-color="#4A9EFF" stop-opacity="0"></stop>
    </radialGradient>
  </defs>
  <rect width="1200" height="630" fill="url(#bg)"></rect>
  <rect width="1200" height="630" fill="url(#glow)"></rect>
  <g transform="translate(80 200) scale(4)">
    
  <path d="M6 28 C 8 18, 14 14, 22 14 L 42 14 C 50 14, 56 18, 58 28 L 50 26 L 42 28 L 32 26 L 22 28 L 14 26 Z" fill="#4A9EFF" stroke="#4A9EFF" stroke-width="2" stroke-linejoin="round"></path>
  
  <line x1="14" y1="26" x2="16" y2="14" stroke="#E8EEF8" stroke-opacity="0.35" stroke-width="1.5"></line>
  <line x1="22" y1="28" x2="24" y2="14" stroke="#E8EEF8" stroke-opacity="0.35" stroke-width="1.5"></line>
  <line x1="32" y1="26" x2="32" y2="14" stroke="#E8EEF8" stroke-opacity="0.35" stroke-width="1.5"></line>
  <line x1="42" y1="28" x2="40" y2="14" stroke="#E8EEF8" stroke-opacity="0.35" stroke-width="1.5"></line>
  <line x1="50" y1="26" x2="48" y2="14" stroke="#E8EEF8" stroke-opacity="0.35" stroke-width="1.5"></line>
  
  <path d="M10 28 L 32 50 L 54 28" stroke="#4A9EFF" stroke-width="3" stroke-linecap="round" stroke-linejoin="round"></path>
  
  <rect x="29" y="48" width="6" height="10" rx="3" fill="#E8EEF8"></rect>
  </g>
  <text x="360" y="290" font-family="Inter Tight, sans-serif" font-size="72" font-weight="700" letter-spacing="-2" fill="#E8EEF8">JumpLogs</text>
  <text x="360" y="350" font-family="Inter Tight, sans-serif" font-size="28" fill="#8B9BB5">The logbook built for jumpers.</text>
  <text x="360" y="440" font-family="JetBrains Mono, monospace" font-size="16" fill="#4A9EFF" letter-spacing="2">$5 / YEAR · IOS · ANDROID</text>
</svg>