<svg xmlns="http://www.w3.org/2000/svg" width="260" height="64" viewBox="0 0 260 64" fill="none">
  <g transform="translate(0,0)">
  <path d="M6 28 C 8 18, 14 14, 22 14 L 42 14 C 50 14, 56 18, 58 28 L 50 26 L 42 28 L 32 26 L 22 28 L 14 26 Z" fill="#4A9EFF" stroke="#4A9EFF" stroke-width="2" stroke-linejoin="round"></path>
  
  <line x1="14" y1="26" x2="16" y2="14" stroke="#E8EEF8" stroke-opacity="0.35" stroke-width="1.5"></line>
  <line x1="22" y1="28" x2="24" y2="14" stroke="#E8EEF8" stroke-opacity="0.35" stroke-width="1.5"></line>
  <line x1="32" y1="26" x2="32" y2="14" stroke="#E8EEF8" stroke-opacity="0.35" stroke-width="1.5"></line>
  <line x1="42" y1="28" x2="40" y2="14" stroke="#E8EEF8" stroke-opacity="0.35" stroke-width="1.5"></line>
  <line x1="50" y1="26" x2="48" y2="14" stroke="#E8EEF8" stroke-opacity="0.35" stroke-width="1.5"></line>
  
  <path d="M10 28 L 32 50 L 54 28" stroke="#4A9EFF" stroke-width="3" stroke-linecap="round" stroke-linejoin="round"></path>
  
  <rect x="29" y="48" width="6" height="10" rx="3" fill="#E8EEF8"></rect></g>
  <text x="80" y="44" font-family="Inter Tight, -apple-system, system-ui, sans-serif" font-size="34" font-weight="700" letter-spacing="-0.02em" fill="#E8EEF8">JumpLogs</text>
</svg>